<svg id="Layer_1" data-name="Layer 1" xmlns="http://www.w3.org/2000/svg" viewBox="0 0 26 26"><path d="M21.78,2.57H4.22A2.2,2.2,0,0,0,2,4.76V17.94a2.2,2.2,0,0,0,2.2,2.19H9.16v0a2.15,2.15,0,0,0-1.65,2.17,2.09,2.09,0,0,0,2,2.19h7a2.09,2.09,0,0,0,2-2.19,2.15,2.15,0,0,0-1.65-2.17v0h4.94A2.2,2.2,0,0,0,24,17.94V4.76A2.2,2.2,0,0,0,21.78,2.57ZM16.51,21.23a1.13,1.13,0,0,1,0,2.2h-7a1.13,1.13,0,0,1,0-2.2h.77v-1.1h5.48v1.1Zm6.37-3.29A1.09,1.09,0,0,1,21.78,19H4.22a1.09,1.09,0,0,1-1.1-1.09V4.76a1.1,1.1,0,0,1,1.1-1.1H21.78a1.1,1.1,0,0,1,1.1,1.1Z" fill="#fff"/><path d="M4.77,16.29H21.23v-11H4.77ZM5.86,6.41H20.14v8.78H5.86Z" fill="#fff"/></svg>